<?xml version="1.0" encoding="utf-8"?>
<!-- Generator: Adobe Illustrator 18.1.1, SVG Export Plug-In . SVG Version: 6.00 Build 0)  -->
<svg version="1.1" id="Layer_1" xmlns="http://www.w3.org/2000/svg" xmlns:xlink="http://www.w3.org/1999/xlink" x="0px" y="0px"
	 viewBox="0 0 203 65" enable-background="new 0 0 203 65" xml:space="preserve">
<g>
	<g>
		<path fill="#01999B" d="M58.4775,44.6352c-1.8021,2.8397-4.262,5.323-7.3292,7.1904c-10.6546,6.485-24.5513,3.105-31.0354-7.5509
			c-3.6224-5.9512-4.1656-12.9087-2.0834-19.0255c-4.4542,7.0279-4.843,16.2569-0.2233,23.846
			c6.4841,10.6575,20.3796,14.0366,31.0354,7.5525C53.5478,53.7834,56.831,49.4712,58.4775,44.6352z"/>
		<path fill="#52A762" d="M32.5922,51.2647c-2.5075-1.6941-4.6784-3.9754-6.2784-6.7831
			c-5.5559-9.7599-2.1511-22.178,7.6088-27.7363c5.4503-3.102,11.7267-3.4084,17.1782-1.3767
			c-6.2082-4.1913-14.5064-4.7838-21.4566-0.8244c-9.7611,5.557-13.1671,17.9751-7.6088,27.7326
			C24.4873,46.5889,28.2825,49.6577,32.5922,51.2647z"/>
		<path fill="#34AEC6" d="M15.9333,52.8021c-2.1811-3.7611-3.5578-8.0609-3.8703-12.6888
			C10.989,24.033,23.1545,10.124,39.2348,9.0499c8.9794-0.6024,17.2771,2.9292,23.0464,8.9604
			C56.8835,8.7148,46.5377,2.7612,35.087,3.5278C19.0034,4.6036,6.8399,18.5126,7.9156,34.5936
			C8.3911,41.6945,11.3728,48.0308,15.9333,52.8021z"/>
		<g>
			<path stroke="#000000" stroke-width="0.6798" d="M43.1039,41.6054c-1.0906,0-2.623-0.2122-3.6244-0.4857v6.4407h-2.6229V24.4711
				h2.535v1.1243c1.4432-1.0327,3.1525-1.5496,4.7137-1.5496c3.7122,0,5.8633,2.1573,5.8633,7.7784v1.6403
				C49.9686,39.9048,46.9918,41.6054,43.1039,41.6054z M47.3457,31.8242c0-4.1015-1.2376-5.3776-3.6519-5.3776
				c-1.2675,0-2.2993,0.2735-4.2144,1.2449v11.1502c1.3254,0.2739,2.5338,0.4558,3.6244,0.4558
				c2.5929,0,4.2419-0.9427,4.2419-5.8329V31.8242z"/>
			<path stroke="#000000" stroke-width="0.6798" d="M55.4506,27.9046v13.2754h-2.6229v-16.709h2.5925v1.3378
				c1.5336-1.2462,3.5065-1.7631,5.7754-1.7631v2.4307C59.0749,26.4765,56.6877,27.0838,55.4506,27.9046z"/>
			<path stroke="#000000" stroke-width="0.6798" d="M68.6804,41.6054c-4.5379,0-6.8947-2.7033-6.8947-7.5636v-2.4311
				c0-4.8607,2.3568-7.5649,6.8947-7.5649c4.5671,0,6.9239,2.7042,6.9239,7.5649v2.4311
				C75.6044,38.9021,73.2476,41.6054,68.6804,41.6054z M72.9527,31.6107c0-3.6157-1.2967-5.1641-4.2723-5.1641
				c-2.9165,0-4.2431,1.5484-4.2431,5.1641v2.4311c0,3.614,1.2962,5.1641,4.2431,5.1641c2.9756,0,4.2723-1.55,4.2723-5.1641V31.6107
				z"/>
			<path stroke="#000000" stroke-width="0.6798" d="M84.7089,41.6054c-1.0889,0-2.6212-0.2122-3.6231-0.4857v6.4407h-2.6229V24.4711
				h2.5342v1.1243c1.4444-1.0327,3.1534-1.5496,4.7144-1.5496c3.7134,0,5.8625,2.1573,5.8625,7.7784v1.6403
				C91.5742,39.9048,88.5998,41.6054,84.7089,41.6054z M88.9537,31.8242c0-4.1015-1.2376-5.3776-3.6552-5.3776
				c-1.2671,0-2.2977,0.2735-4.2128,1.2449v11.1502c1.3263,0.2739,2.5342,0.4558,3.6231,0.4558
				c2.5925,0,4.2448-0.9427,4.2448-5.8329V31.8242z"/>
			<path stroke="#000000" stroke-width="0.6798" d="M96.586,33.8283v0.3338c0,2.8865,0.4122,5.0737,4.8894,5.0737
				c1.7976,0,4.1265-0.2118,5.658-0.4857v2.1864c-1.1201,0.3047-3.0934,0.6689-5.7754,0.6689c-5.7459,0-7.4244-2.643-7.4244-8.0506
				v-1.2753c0-5.2557,2.2689-8.2337,6.8644-8.2337c4.7744,0,6.9539,2.9477,6.9539,8.5676v1.2149H96.586z M105.0122,31.2768
				c0-2.0357-0.413-4.8607-4.184-4.8607c-3.7127,0-4.2144,2.8249-4.2144,4.8607v0.3038h8.3984V31.2768z"/>
			<path stroke="#000000" stroke-width="0.6798" d="M113.528,27.9046v13.2754h-2.6229v-16.709h2.5933v1.3378
				c1.5323-1.2462,3.5065-1.7631,5.7754-1.7631v2.4307C117.1528,26.4765,114.7656,27.0838,113.528,27.9046z"/>
			<path stroke="#000000" stroke-width="0.6798" d="M128.1716,41.6054c-2.9456,0-4.0058-1.093-4.0058-4.2534V26.75l-3.2708-0.2434
				v-2.0354h3.2708v-4.3449h2.65v4.3449h4.3326V26.75h-4.3326v10.4805c0,1.8851,0.1486,2.1884,1.6522,2.1884
				c0.9124,0,2.1786-0.0916,2.6804-0.1515v1.8822C130.7066,41.3016,129.4099,41.6054,128.1716,41.6054z"/>
			<path stroke="#000000" stroke-width="0.6798" d="M141.6097,42.6685c-1.0914,3.2215-2.1203,5.2869-5.4512,5.2869
				c-1.3862,0-2.5934-0.1815-3.1526-0.3038V45.555c1.2671,0.0912,2.0029,0.1215,3.0647,0.1215c1.5907,0,2.0325-0.8507,2.9161-3.2806
				l0.4418-1.2158l-6.2747-16.709h2.9169l3.2988,9.3871c0.5009,1.4897,0.8245,2.643,1.3558,4.4365
				c0.4131-1.7935,0.7366-2.9165,1.2376-4.4665l2.9752-9.3572h2.829L141.6097,42.6685z"/>
			<path fill="#34AEC6" stroke="#2EADC6" stroke-width="0.6798" d="M150.1542,41.1801V17.6667h2.6229v23.5134H150.1542z"/>
			<path fill="#34AEC6" stroke="#2EADC6" stroke-width="0.6798" d="M156.9307,21.3724v-3.7057h2.6828v3.7057H156.9307z
				 M156.9307,41.1801v-16.709h2.6533v16.709H156.9307z"/>
			<path fill="#34AEC6" stroke="#2EADC6" stroke-width="0.6798" d="M173.9918,41.1801V30.5177c0-3.0384-0.4705-4.1315-2.7107-4.1315
				c-1.2662,0-2.9448,0.5157-5.0971,1.4884v13.3055h-2.6221v-16.709h2.6221v1.3066c1.8863-1.0031,3.5952-1.7319,5.3928-1.7319
				c4.3014,0,5.0676,2.4008,5.0676,6.4719v10.6624H173.9918z"/>
			<path fill="#34AEC6" stroke="#2EADC6" stroke-width="0.6798" d="M189.4024,41.1801l-6.54-8.2929v8.2929h-2.6221V17.6667h2.6221
				v14.3394l6.5121-7.5349h3.4162l-7.0114,7.9291l7.1304,8.7799H189.4024z"/>
		</g>
	</g>
	<g>
		<path fill="#B3B3B2" d="M78.7672,52.8957c0.519-0.087,1.1985-0.161,2.0637-0.161c1.0626,0,1.8411,0.2472,2.3351,0.6923
			c0.4574,0.395,0.7292,1.001,0.7292,1.7418c0,0.7539-0.2225,1.3476-0.6422,1.7795c-0.5687,0.6052-1.4954,0.9148-2.5457,0.9148
			c-0.3215,0-0.618-0.0123-0.8651-0.0747v3.3365h-1.0749V52.8957z M79.8421,56.9113c0.2349,0.0616,0.5313,0.0862,0.8898,0.0862
			c1.2975,0,2.0883-0.6299,2.0883-1.7787c0-1.1004-0.7785-1.6317-1.9647-1.6317c-0.4697,0-0.8278,0.0378-1.0134,0.087V56.9113z"/>
		<path fill="#B3B3B2" d="M88.2968,61.1249l-0.0862-0.7539h-0.0369c-0.3342,0.4697-0.9764,0.8902-1.8288,0.8902
			c-1.2113,0-1.8288-0.8532-1.8288-1.7179c0-1.4453,1.2852-2.2361,3.5952-2.2238v-0.124c0-0.4944-0.1355-1.3837-1.3591-1.3837
			c-0.5559,0-1.1365,0.1725-1.557,0.4451l-0.2472-0.7169c0.4944-0.3211,1.2113-0.5313,1.9651-0.5313
			c1.8288,0,2.2731,1.2482,2.2731,2.4463v2.2369c0,0.519,0.0246,1.0249,0.0994,1.433H88.2968z M88.1358,58.0725
			c-1.1858-0.0246-2.5326,0.1856-2.5326,1.3476c0,0.7038,0.4697,1.0372,1.0257,1.0372c0.7785,0,1.272-0.4935,1.4453-1.0002
			c0.0369-0.1117,0.0616-0.2349,0.0616-0.3465V58.0725z"/>
		<path fill="#B3B3B2" d="M90.9427,57.0099c0-0.7038-0.0123-1.3098-0.0493-1.8658h0.9518l0.0369,1.1743h0.0493
			c0.2718-0.8031,0.9271-1.3098,1.6555-1.3098c0.124,0,0.2102,0.0123,0.3096,0.037v1.0257c-0.1117-0.0246-0.2225-0.037-0.3712-0.037
			c-0.7662,0-1.3098,0.5806-1.4576,1.396c-0.0246,0.1486-0.0493,0.3211-0.0493,0.5067v3.1879h-1.0758V57.0099z"/>
		<path fill="#B3B3B2" d="M96.5909,53.427v1.7171h1.557v0.8278h-1.557v3.2257c0,0.7415,0.2102,1.1612,0.8155,1.1612
			c0.285,0,0.4944-0.037,0.6307-0.0739l0.0493,0.8154c-0.2102,0.0862-0.5436,0.1478-0.9641,0.1478
			c-0.5067,0-0.914-0.1601-1.1735-0.4566c-0.3088-0.3211-0.4205-0.8524-0.4205-1.557v-3.2626h-0.9263v-0.8278h0.9263v-1.433
			L96.5909,53.427z"/>
		<path fill="#B3B3B2" d="M107.4052,58.0848c0,2.2123-1.5323,3.1764-2.9777,3.1764c-1.6186,0-2.8668-1.1866-2.8668-3.077
			c0-2.0021,1.3098-3.1756,2.9653-3.1756C106.244,55.0086,107.4052,56.2568,107.4052,58.0848z M102.6603,58.1472
			c0,1.3098,0.7539,2.2977,1.8165,2.2977c1.038,0,1.8165-0.9756,1.8165-2.3223c0-1.0134-0.5067-2.2985-1.7919-2.2985
			S102.6603,57.0099,102.6603,58.1472z"/>
		<path fill="#B3B3B2" d="M108.8907,61.1249v-5.153h-0.8401v-0.8278h0.8401V54.86c0-0.8401,0.1856-1.6063,0.6914-2.0883
			c0.4081-0.395,0.9518-0.556,1.4584-0.556c0.3827,0,0.7169,0.087,0.9271,0.1733l-0.1486,0.8401
			c-0.161-0.0739-0.3827-0.1355-0.6923-0.1355c-0.9263,0-1.1612,0.8154-1.1612,1.7294v0.3211h1.4453v0.8278h-1.4453v5.153H108.8907z
			"/>
		<path fill="#B3B3B2" d="M119.3585,57.2201h-3.2372v3.0031h3.6075v0.9017h-4.6825v-8.3286h4.4977v0.9025h-3.4227v2.6319h3.2372
			V57.2201z"/>
		<path fill="#B3B3B2" d="M120.9426,60.013c0.3211,0.2102,0.8894,0.4319,1.433,0.4319c0.7908,0,1.162-0.395,1.162-0.8894
			c0-0.519-0.3088-0.8031-1.1127-1.0996c-1.0749-0.3835-1.5816-0.9764-1.5816-1.6933c0-0.9633,0.7785-1.7541,2.0637-1.7541
			c0.606,0,1.1374,0.1725,1.4708,0.3704l-0.2718,0.7908c-0.2349-0.1478-0.6676-0.3457-1.2236-0.3457
			c-0.6422,0-1.001,0.3704-1.001,0.8154c0,0.4944,0.3589,0.7169,1.1374,1.0134c1.038,0.395,1.5693,0.914,1.5693,1.8042
			c0,1.0503-0.8155,1.791-2.2369,1.791c-0.6545,0-1.2605-0.1601-1.6802-0.4073L120.9426,60.013z"/>
		<path fill="#B3B3B2" d="M127.2954,53.427v1.7171h1.557v0.8278h-1.557v3.2257c0,0.7415,0.2102,1.1612,0.8154,1.1612
			c0.285,0,0.4944-0.037,0.6307-0.0739l0.0493,0.8154c-0.2102,0.0862-0.5436,0.1478-0.9641,0.1478
			c-0.5067,0-0.914-0.1601-1.1735-0.4566c-0.3088-0.3211-0.4205-0.8524-0.4205-1.557v-3.2626h-0.9263v-0.8278h0.9263v-1.433
			L127.2954,53.427z"/>
		<path fill="#B3B3B2" d="M133.3887,61.1249l-0.0862-0.7539h-0.037c-0.3342,0.4697-0.9764,0.8902-1.8288,0.8902
			c-1.2113,0-1.8288-0.8532-1.8288-1.7179c0-1.4453,1.2852-2.2361,3.5952-2.2238v-0.124c0-0.4944-0.1355-1.3837-1.3591-1.3837
			c-0.556,0-1.1365,0.1725-1.557,0.4451l-0.2472-0.7169c0.4944-0.3211,1.2113-0.5313,1.9651-0.5313
			c1.8288,0,2.2731,1.2482,2.2731,2.4463v2.2369c0,0.519,0.0246,1.0249,0.0994,1.433H133.3887z M133.2277,58.0725
			c-1.1858-0.0246-2.5326,0.1856-2.5326,1.3476c0,0.7038,0.4697,1.0372,1.0257,1.0372c0.7785,0,1.272-0.4935,1.4453-1.0002
			c0.037-0.1117,0.0616-0.2349,0.0616-0.3465V58.0725z"/>
		<path fill="#B3B3B2" d="M137.2951,53.427v1.7171h1.557v0.8278h-1.557v3.2257c0,0.7415,0.2102,1.1612,0.8154,1.1612
			c0.285,0,0.4944-0.037,0.6307-0.0739l0.0493,0.8154c-0.2102,0.0862-0.5436,0.1478-0.9641,0.1478
			c-0.5067,0-0.914-0.1601-1.1735-0.4566c-0.3088-0.3211-0.4205-0.8524-0.4205-1.557v-3.2626h-0.9263v-0.8278h0.9263v-1.433
			L137.2951,53.427z"/>
		<path fill="#B3B3B2" d="M140.6078,58.332c0.0246,1.4708,0.9633,2.076,2.0505,2.076c0.7785,0,1.2482-0.1355,1.6563-0.3088
			l0.1848,0.7785c-0.3827,0.1733-1.0372,0.3704-1.9889,0.3704c-1.8411,0-2.9407-1.2104-2.9407-3.0146s1.0626-3.2248,2.8044-3.2248
			c1.9528,0,2.4718,1.7171,2.4718,2.8167c0,0.2225-0.0246,0.3958-0.037,0.5067H140.6078z M143.7957,57.5535
			c0.0123-0.6914-0.2841-1.7664-1.5077-1.7664c-1.0996,0-1.5816,1.0134-1.6678,1.7664H143.7957z"/>
		<path fill="#B3B3B2" d="M146.0466,60.013c0.3211,0.2102,0.8894,0.4319,1.433,0.4319c0.7908,0,1.162-0.395,1.162-0.8894
			c0-0.519-0.3088-0.8031-1.1127-1.0996c-1.075-0.3835-1.5816-0.9764-1.5816-1.6933c0-0.9633,0.7785-1.7541,2.0637-1.7541
			c0.606,0,1.1374,0.1725,1.4708,0.3704l-0.2718,0.7908c-0.2349-0.1478-0.6676-0.3457-1.2236-0.3457
			c-0.6422,0-1.001,0.3704-1.001,0.8154c0,0.4944,0.3589,0.7169,1.1374,1.0134c1.038,0.395,1.5693,0.914,1.5693,1.8042
			c0,1.0503-0.8154,1.791-2.2369,1.791c-0.6545,0-1.2605-0.1601-1.6802-0.4073L146.0466,60.013z"/>
		<path fill="#B3B3B2" d="M160.0866,60.7545c-0.482,0.1725-1.4338,0.4566-2.558,0.4566c-1.2605,0-2.2985-0.3211-3.114-1.0996
			c-0.7169-0.6914-1.1612-1.8042-1.1612-3.1017c0.0123-2.4833,1.7171-4.2998,4.51-4.2998c0.9633,0,1.7171,0.2102,2.076,0.3835
			l-0.2595,0.877c-0.4451-0.1979-1.001-0.358-1.8411-0.358c-2.0267,0-3.3488,1.2597-3.3488,3.348
			c0,2.1129,1.2728,3.3612,3.2125,3.3612c0.7046,0,1.1866-0.0985,1.4338-0.2225v-2.4833h-1.6933v-0.8655h2.7436V60.7545z"/>
		<path fill="#B3B3B2" d="M165.1065,61.1249l-0.0862-0.7539h-0.0369c-0.3342,0.4697-0.9764,0.8902-1.8288,0.8902
			c-1.2113,0-1.8288-0.8532-1.8288-1.7179c0-1.4453,1.2852-2.2361,3.5952-2.2238v-0.124c0-0.4944-0.1355-1.3837-1.3591-1.3837
			c-0.556,0-1.1365,0.1725-1.557,0.4451l-0.2472-0.7169c0.4944-0.3211,1.2113-0.5313,1.9651-0.5313
			c1.8288,0,2.2731,1.2482,2.2731,2.4463v2.2369c0,0.519,0.0246,1.0249,0.0994,1.433H165.1065z M164.9456,58.0725
			c-1.1858-0.0246-2.5326,0.1856-2.5326,1.3476c0,0.7038,0.4697,1.0372,1.0257,1.0372c0.7785,0,1.272-0.4935,1.4453-1.0002
			c0.037-0.1117,0.0616-0.2349,0.0616-0.3465V58.0725z"/>
		<path fill="#B3B3B2" d="M167.0733,60.495l2.7058-3.5221c0.2595-0.3211,0.5067-0.6052,0.7785-0.9263V56.022h-3.2372v-0.8779h4.5593
			l-0.0123,0.68l-2.6689,3.472c-0.2472,0.3334-0.4944,0.6299-0.7662,0.9394v0.0246h3.4967v0.8647h-4.8557V60.495z"/>
		<path fill="#B3B3B2" d="M173.5624,58.332c0.0246,1.4708,0.9633,2.076,2.0505,2.076c0.7785,0,1.2482-0.1355,1.6564-0.3088
			l0.1848,0.7785c-0.3827,0.1733-1.0372,0.3704-1.9889,0.3704c-1.8411,0-2.9407-1.2104-2.9407-3.0146s1.0626-3.2248,2.8044-3.2248
			c1.9528,0,2.4718,1.7171,2.4718,2.8167c0,0.2225-0.0246,0.3958-0.037,0.5067H173.5624z M176.7503,57.5535
			c0.0123-0.6914-0.2841-1.7664-1.5077-1.7664c-1.0996,0-1.5816,1.0134-1.6678,1.7664H176.7503z"/>
		<path fill="#B3B3B2" d="M180.4588,53.427v1.7171h1.557v0.8278h-1.557v3.2257c0,0.7415,0.2102,1.1612,0.8155,1.1612
			c0.2849,0,0.4944-0.037,0.6307-0.0739l0.0493,0.8154c-0.2102,0.0862-0.5436,0.1478-0.9641,0.1478
			c-0.5067,0-0.914-0.1601-1.1735-0.4566c-0.3088-0.3211-0.4205-0.8524-0.4205-1.557v-3.2626h-0.9263v-0.8278h0.9263v-1.433
			L180.4588,53.427z"/>
		<path fill="#B3B3B2" d="M184.55,53.427v1.7171h1.557v0.8278h-1.557v3.2257c0,0.7415,0.2102,1.1612,0.8154,1.1612
			c0.285,0,0.4944-0.037,0.6307-0.0739l0.0493,0.8154c-0.2102,0.0862-0.5436,0.1478-0.9641,0.1478
			c-0.5067,0-0.914-0.1601-1.1735-0.4566c-0.3088-0.3211-0.4205-0.8524-0.4205-1.557v-3.2626h-0.9263v-0.8278h0.9263v-1.433
			L184.55,53.427z"/>
		<path fill="#B3B3B2" d="M187.8627,58.332c0.0246,1.4708,0.9633,2.076,2.0505,2.076c0.7785,0,1.2482-0.1355,1.6564-0.3088
			l0.1848,0.7785c-0.3827,0.1733-1.0372,0.3704-1.9889,0.3704c-1.8411,0-2.9407-1.2104-2.9407-3.0146s1.0626-3.2248,2.8044-3.2248
			c1.9528,0,2.4718,1.7171,2.4718,2.8167c0,0.2225-0.0246,0.3958-0.037,0.5067H187.8627z M191.0506,57.5535
			c0.0123-0.6914-0.2841-1.7664-1.5077-1.7664c-1.0996,0-1.5816,1.0134-1.6678,1.7664H191.0506z"/>
	</g>
</g>
</svg>
