<?xml version="1.0" encoding="utf-8"?>
<!-- Generator: Adobe Illustrator 18.0.0, SVG Export Plug-In . SVG Version: 6.00 Build 0)  -->
<!DOCTYPE svg PUBLIC "-//W3C//DTD SVG 1.1//EN" "http://www.w3.org/Graphics/SVG/1.1/DTD/svg11.dtd">
<svg version="1.1" id="Layer_1" xmlns="http://www.w3.org/2000/svg" xmlns:xlink="http://www.w3.org/1999/xlink" x="0px" y="0px"
	 width="800px" height="184.3px" viewBox="0 286 800 184.3" enable-background="new 0 286 800 184.3" xml:space="preserve">
<g>
	<path fill="#601A5D" d="M618.9,380.9c0,0.3,0,0.6-0.1,0.8c-0.1,1.5-0.4,2.9-0.7,4.3c-1.3,5.3-4.3,10-8.4,13.5
		c-4.2,3.4-9.6,5.5-15.5,5.6c-7.3-0.1-14-3.3-18.5-8.4c-0.2-0.3-0.5-0.5-0.7-0.8c-0.1-0.1-0.1-0.1-0.2-0.2
		c-3.3-4.3-5.3-9.7-5.3-15.5c0.1-5.8,2-11.2,5.3-15.5c0.1-0.1,0.1-0.1,0.2-0.2c0.2-0.3,0.5-0.5,0.7-0.8c4.6-5.1,11.2-8.4,18.5-8.4
		c6.4,0.1,12.1,2.5,16.4,6.4c0.3,0.2,0.5,0.5,0.8,0.8c0.2,0.2,0.4,0.4,0.5,0.5c0.6,0.6,1.1,1.2,1.6,2c0.4,0.5,0.8,1.1,1.1,1.6
		c0.1,0.1,0.1,0.2,0.2,0.3c2.5,3.9,3.9,8.6,3.9,13.5C619,380.3,618.9,380.6,618.9,380.9 M627.8,336.5c-0.6,0-1.2,0.1-1.8,0.2
		c-0.2,0.1-0.4,0.1-0.6,0.2c-0.4,0.1-0.8,0.2-1.1,0.4c-0.2,0.1-0.5,0.2-0.7,0.3c-0.3,0.1-0.6,0.3-0.9,0.5c-0.2,0.1-0.5,0.3-0.7,0.5
		c-0.2,0.2-0.5,0.4-0.7,0.5c-0.2,0.2-0.4,0.4-0.7,0.6c-0.2,0.2-0.3,0.4-0.5,0.6c-0.2,0.2-0.4,0.5-0.6,0.8c-0.1,0.1-0.2,0.3-0.2,0.5
		c-0.4,0.8-0.8,1.6-1,2.5c-6.8-4.6-15-7.4-23.9-7.4c-0.1,0-0.2,0-0.3,0c-0.1,0-0.1,0-0.1,0c-12.6,0-23.8,5.4-31.5,13.9
		c-0.1,0.1-0.2,0.2-0.4,0.4c-0.1,0.2-0.3,0.4-0.4,0.5c-6.7,7.6-10.8,17.6-10.8,28.6c0,0,0,0.1,0,0.2c0,0,0,0.1,0,0.2
		c0,11,4.1,21,10.8,28.6c0.1,0.2,0.3,0.4,0.4,0.5c0.1,0.1,0.2,0.2,0.4,0.4c7.8,8.5,18.9,13.9,31.5,13.9c0,0,0.1,0,0.2,0
		c9-0.1,17.3-2.8,24.2-7.5c1,4.3,4.8,7.5,9.4,7.5c5.3,0,9.6-4.3,9.6-9.6v-67.8l0,0l0,0C637.5,340.8,633.2,336.5,627.8,336.5"/>
	<path fill="#601A5D" d="M315.4,380.2c0-13.4-10.6-25.2-24.4-25.2c-13.6,0-25,11-25,24.7c0,13.6,10.5,25.3,24.5,25.3
		C304.3,405.1,315.4,394,315.4,380.2 M247.5,379.9c0-24.1,19.6-43.4,43.5-43.4c23.8,0,42.9,19.8,42.9,43.2
		c0,24.1-19.1,43.8-43.4,43.8C266.4,423.6,247.5,403.7,247.5,379.9"/>
	<path fill="#601A5D" d="M406.6,380.2c0-13.4-10.6-25.2-24.4-25.2c-13.6,0-25,11-25,24.7c0,13.6,10.5,25.3,24.5,25.3
		C395.5,405.1,406.6,394,406.6,380.2 M338.6,379.9c0-24.1,19.6-43.4,43.5-43.4c23.8,0,42.9,19.8,42.9,43.2
		c0,24.1-19.1,43.8-43.4,43.8C357.6,423.6,338.6,403.7,338.6,379.9"/>
	<path fill="#601A5D" d="M243.7,393.2c0-5.3-4.3-9.6-9.6-9.6c-5.3,0-9.6,4.3-9.6,9.6l0,0l0,0v7.6v2.3h-35.8l49.7-71.5
		c0.4-0.5,0.8-1.1,1.1-1.7c1.1-1.8,1.7-4,1.7-6.3c0-6.9-5.6-12.4-12.4-12.4h-56.6c-5.3,0-9.6,4.3-9.6,9.6c0,5.3,4.3,9.6,9.6,9.6l0,0
		h43.3l-49.4,71l-0.8,1.1c-0.8,1.4-1.4,2.9-1.7,4.6c-0.1,0.7-0.2,1.3-0.2,2s0.1,1.3,0.2,2c1,5.9,6.1,10.5,12.2,10.5h67.9
		L243.7,393.2L243.7,393.2L243.7,393.2z"/>
	<path fill="#601A5D" d="M535.4,311.2c-5.3,0-9.6,4.3-9.6,9.6l0,0l0,0v93.1c0,5.3,4.3,9.6,9.6,9.6s9.6-4.3,9.6-9.6l0,0l0,0v-93
		C545,315.5,540.7,311.2,535.4,311.2"/>
	<path fill="#601A5D" d="M475.3,405.1c-11.6,0-21-8.4-23.6-19.1c-0.5-2-0.8-4-0.8-6.1c0-2.1,0.3-4.1,0.8-6.1
		c2.7-10.8,12.4-18.8,24.1-18.8c14.1,0,24.5,11.8,24.5,25.3C500.3,394.1,488.9,405.1,475.3,405.1 M475.7,336.5
		c-9.1,0-17.5,2.8-24.3,7.5V344c-0.2-0.9-0.5-1.7-1-2.5c-0.1-0.2-0.2-0.4-0.2-0.5c-0.2-0.3-0.4-0.5-0.6-0.8
		c-0.2-0.2-0.3-0.4-0.5-0.6c-0.2-0.2-0.4-0.4-0.7-0.6s-0.4-0.4-0.7-0.6s-0.4-0.3-0.7-0.5c-0.3-0.2-0.6-0.4-0.9-0.5
		c-0.2-0.1-0.4-0.2-0.7-0.3c-0.4-0.1-0.7-0.2-1.1-0.4c-0.2-0.1-0.4-0.1-0.6-0.2c-0.6-0.1-1.2-0.2-1.8-0.2c-5.3,0-9.6,4.3-9.6,9.6
		l0,0l0,0v93.1c0,5.3,4.3,9.6,9.6,9.6c5.3,0,9.6-4.3,9.6-9.6l0,0l0,0v-23c6.8,4.6,14.9,7.2,23.6,7.2c23.9,0,43.5-19.3,43.5-43.4
		C518.8,356.5,499.9,336.5,475.7,336.5"/>
</g>
</svg>
