<?xml version="1.0" encoding="utf-8"?>
<!-- Generator: Adobe Illustrator 18.1.1, SVG Export Plug-In . SVG Version: 6.00 Build 0)  -->
<svg version="1.1" id="Layer_1" xmlns="http://www.w3.org/2000/svg" xmlns:xlink="http://www.w3.org/1999/xlink" x="0px" y="0px"
	 viewBox="0 0 773.3333 173" enable-background="new 0 0 773.3333 173" xml:space="preserve">
<g>
	<rect x="-84.8902" y="-54.1771" display="none" fill="#FFFFFF" width="938.2333" height="300.2345"/>
	<polyline points="194.758,48.2954 226.1806,48.2954 245.188,111.2688 245.4476,111.2688 264.197,48.2954 295.7495,48.2954 
		295.7495,143.985 273.2494,143.985 274.025,72.347 273.7654,72.0874 253.335,143.985 237.1708,143.985 216.74,72.0874 
		216.482,72.347 217.258,143.985 194.758,143.985 194.758,48.2954 	"/>
	<path d="M323.3405,95.8806c0,3.7076,0.6048,7.2842,1.8112,10.7338c1.2064,3.3612,2.9304,6.3788,5.172,9.0508
		c2.3272,2.5872,5.0868,4.699,8.2767,6.3358c3.2756,1.5516,6.9817,2.3276,11.1201,2.3276c4.3096,0,8.0602-0.8616,11.2502-2.5856
		c3.2756-1.8108,5.9481-4.0954,8.0172-6.8534c2.1545-2.7596,3.7502-5.7752,4.7843-9.0524c1.1207-3.2756,1.6814-6.464,1.6814-9.5688
		c0-3.1028-0.5606-6.2928-1.6814-9.5684c-1.034-3.3612-2.6298-6.423-4.7843-9.181c-2.0691-2.8448-4.7416-5.1294-8.0172-6.8534
		c-3.2756-1.8096-7.1118-2.715-11.5097-2.715c-4.2237,0-7.9726,0.8186-11.2498,2.457c-3.2756,1.6368-6.0336,3.7932-8.2752,6.4656
		c-2.1548,2.6724-3.7932,5.6884-4.914,9.0508C323.9011,89.1996,323.3405,92.5194,323.3405,95.8806 M302.6517,76.8732
		c1.2936-3.1044,3.19-6.423,5.69-9.9582c2.4996-3.5336,5.6454-6.8092,9.4387-9.8264c3.8804-3.1032,8.405-5.6474,13.5789-7.6294
		c5.2576-1.9836,11.2498-2.9746,17.9734-2.9746c7.3268,0,14.095,1.3362,20.301,4.0086c6.2076,2.672,11.5525,6.2928,16.0344,10.862
		c4.4832,4.4832,7.9743,9.7412,10.4738,15.776c2.5,6.0352,3.7506,12.371,3.7506,19.009c0,6.6368-1.2506,12.9742-3.7506,19.0074
		c-2.4995,6.0352-5.9906,11.337-10.4738,15.9062c-4.4819,4.482-9.8268,8.0598-16.0344,10.7322
		c-6.206,2.6724-13.0168,4.0086-20.4308,4.0086c-7.4992,0-14.3531-1.3792-20.5606-4.1384
		c-6.206-2.758-11.5078-6.3788-15.9043-10.862c-4.3964-4.5692-7.8018-9.7412-10.2162-15.5168
		c-2.4128-5.8624-3.6208-11.853-3.6208-17.9734c0-3.19,0.2596-6.5086,0.776-9.9582
		C300.1947,83.8979,301.1857,80.4068,302.6517,76.8732"/>
	<polyline points="415.1204,48.2954 434.3875,115.4072 434.6458,115.4072 454.0426,48.2954 479.2577,48.2954 447.1892,143.985 
		421.9742,143.985 390.0337,48.2954 415.1204,48.2954 	"/>
	<polyline points="481.8124,48.2954 534.959,48.2954 534.959,69.7602 505.2178,69.7602 505.2178,84.6308 534.0536,84.6308 
		534.0536,106.0968 505.2178,106.0968 505.2178,122.5191 534.959,122.5191 534.959,143.985 481.8124,143.985 481.8124,48.2954 	"/>
	<polyline fill="#990000" points="541.7408,48.2954 566.1803,48.2954 566.1803,84.243 597.4727,84.243 597.4727,48.2954 
		621.9122,48.2954 621.9122,143.985 597.4727,143.985 597.4727,105.709 566.1803,105.709 566.1803,143.985 541.7408,143.985 
		541.7408,48.2954 	"/>
	<path fill="#990000" d="M653.4935,48.2954v57.8014c0,1.6368,0.0872,3.5336,0.2595,5.69c0.1712,2.0692,0.6462,4.0512,1.4219,5.9476
		c0.7755,1.8096,1.982,3.3612,3.6207,4.6548c1.724,1.2932,4.0938,1.9394,7.1114,1.9394c3.0177,0,5.3448-0.559,6.9832-1.6798
		c1.6372-1.208,2.8453-2.7166,3.6208-4.5262c0.7756-1.8112,1.2065-3.7936,1.2936-5.948c0.1724-2.1564,0.2581-4.1814,0.2581-6.0778
		V48.2954h24.439v57.8014c0,4.0512-0.215,7.5864-0.6459,10.6024c-0.4304,2.932-1.0781,5.5172-1.9394,7.7592
		c-0.7756,2.2416-1.7681,4.2666-2.9745,6.0778c-1.1207,1.724-2.457,3.3624-4.0086,4.914c-3.1032,3.1884-6.8534,5.7326-11.2498,7.629
		c-4.3968,1.8096-9.5688,2.7154-15.5168,2.7154c-1.7239,0-3.7932-0.1298-6.2075-0.3878c-2.3273-0.2584-4.7417-0.733-7.2413-1.4218
		c-2.4999-0.7771-4.9996-1.8112-7.4996-3.1048c-2.4144-1.3788-4.6118-3.1454-6.5954-5.3018c-1.982-2.1548-3.6208-4.224-4.9139-6.206
		c-1.2065-2.0692-2.1548-4.224-2.8437-6.4656c-0.69-2.2416-1.165-4.699-1.423-7.3714c-0.258-2.7576-0.3878-5.905-0.3878-9.4386
		V48.2954H653.4935"/>
	<polyline fill="#990000" points="726.0264,69.7602 707.1472,69.7602 707.1472,48.2954 769.2167,48.2954 769.2167,69.7602 
		750.4673,69.7602 750.4673,143.985 726.0264,143.985 726.0264,69.7602 	"/>
	<path fill="#990000" d="M41.3224,2.1167h92.194c21.0614,0,38.018,16.9566,38.018,38.018v92.1939
		c0,21.063-16.9566,38.018-38.018,38.018h-92.194c-21.0629,0-38.018-16.955-38.018-38.018V40.1347
		C3.3044,19.0733,20.2595,2.1167,41.3224,2.1167L41.3224,2.1167z M41.3224,2.1167"/>
	<rect x="68.1727" y="77.8505" fill="#990000" width="38.731" height="59.878"/>
	<path fill="#FFFFFF" d="M87.0136,42.1781L37.7595,77.953v57.2041c0,13.8507,14.3483,13.7877,14.3483,13.7877h70.4332
		c14.1607,0,14.1607-13.7877,14.1607-13.7877V77.953L87.0136,42.1781z M66.455,77.953h41.5516v63.1658H66.455V77.953z
		 M66.455,77.953"/>
	<path fill="#FFFFFF" d="M87.0136,33.234L26.7661,77.953c0,0-2.8159,0.9132-4.8436-1.6142
		c-2.3777-2.9625,0.1235-5.5907,0.1235-5.5907l64.9676-47.5758l65.2154,46.9543c0,0,2.4922,2.622,0.5969,5.516
		c-2.0309,3.0981-4.8209,2.3104-4.8209,2.3104L87.0136,33.234z M87.0136,33.234"/>
</g>
</svg>
