<?xml version="1.0" encoding="utf-8"?>
<!-- Generator: Adobe Illustrator 18.1.1, SVG Export Plug-In . SVG Version: 6.00 Build 0)  -->
<svg version="1.1" id="Layer_1" xmlns="http://www.w3.org/2000/svg" xmlns:xlink="http://www.w3.org/1999/xlink" x="0px" y="0px"
	 viewBox="0 0 80 80" enable-background="new 0 0 80 80" xml:space="preserve">
<g>
	<g>
		<g>
			<path fill="#FFFFFF" d="M50.3,23.3H29.7L16.2,36.7v1l4.1,4.1V45L39,63.8c0,0,1,1,2.1,1c1.7,0,3.1-1.4,3.1-3.1c0-1-1-2.1-1-2.1
				l2.1,2.1c0,0,1,1,2.1,1c1.7,0,3.1-1.4,3.1-3.1c0-1-1-2.1-1-2.1l1,1c0,0,1,1,2.1,1c1.7,0,3.1-1.4,3.1-3.1c0-1-1-2.1-1-2.1
				l-2.3-1.9c0,0,1,1,2.1,1c1.7,0,3.1-1.4,3.1-3.1c0-1-1-2.1-1-2.1l-1-1h1l4.1-4.1v-2.1l3.1-3.1v-1L50.3,23.3z"/>
		</g>
		<g>
			<path fill="#FFFFFF" d="M25.5,51.4c0,0-1,1-2.1,1c-1.7,0-3.1-1.4-3.1-3.1c0-1,1-2.1,1-2.1L25.5,51.4z"/>
		</g>
		<g>
			<path fill="#FFFFFF" d="M29.7,55.5c0,0-1,1-2.1,1c-1.7,0-3.1-1.4-3.1-3.1c0-1,1-2.1,1-2.1L29.7,55.5z"/>
		</g>
		<g>
			<path fill="#FFFFFF" d="M33.8,59.6c0,0-1,1-2.1,1c-1.7,0-3.1-1.4-3.1-3.1c0-1,1-2.1,1-2.1L33.8,59.6z"/>
		</g>
		<g>
			<path fill="#FFFFFF" d="M37.9,63.8c0,0-1,1-2.1,1c-1.7,0-3.1-1.4-3.1-3.1c0-1,1-2.1,1-2.1L37.9,63.8z"/>
		</g>
		<g>
			
				<rect x="15.9" y="13.3" transform="matrix(0.7071 0.7071 -0.7071 0.7071 24.6797 -6.6077)" fill="#E0E0E0" width="8.8" height="26.4"/>
		</g>
		<g>
			
				<rect x="55.3" y="13.3" transform="matrix(-0.7071 0.7071 -0.7071 -0.7071 120.5386 2.9337)" fill="#F4F4F4" width="8.8" height="26.4"/>
		</g>
		<g>
			<rect x="29.7" y="22.3" fill="#575757" width="20.7" height="2.1"/>
		</g>
		<g>
			<path fill="#575757" d="M56.6,48.2c-0.3,0-0.5-0.1-0.8-0.3c-0.4-0.4-0.4-1.1,0-1.4l3.9-3.9v-2.1l3.4-3.4c0.4-0.4,1.1-0.4,1.4,0
				c0.4,0.4,0.4,1.1,0,1.4l-2.8,2.8v2.1l-4.4,4.4C57.1,48.1,56.9,48.2,56.6,48.2z"/>
		</g>
		<g>
			<path fill="#575757" d="M54.5,55.5c-0.3,0-0.5-0.1-0.8-0.3L42.4,43.8c-0.4-0.4-0.4-1.1,0-1.4c0.4-0.4,1.1-0.4,1.4,0l11.4,11.4
				c0.4,0.4,0.4,1.1,0,1.4C55,55.4,54.8,55.5,54.5,55.5z"/>
		</g>
		<g>
			<path fill="#575757" d="M54.5,54.5c-1.4,0-2.7-1.2-2.8-1.3c-0.4-0.4-0.4-1.1,0-1.4c0.4-0.4,1.1-0.4,1.4,0
				c0.3,0.3,0.9,0.8,1.3,0.8c1.2,0,2.1-0.9,2.1-2.1c0-0.4-0.4-1-0.8-1.3c-0.4-0.4-0.4-1.1,0-1.4c0.4-0.4,1.1-0.4,1.4,0
				c0.2,0.2,1.3,1.3,1.3,2.8C58.6,52.5,56.8,54.5,54.5,54.5z"/>
		</g>
		<g>
			<path fill="#575757" d="M52.4,60.7c-1.4,0-2.7-1.2-2.8-1.3L38.2,47.9c-0.4-0.4-0.4-1.1,0-1.4c0.4-0.4,1.1-0.4,1.4,0l11.4,11.4
				c0.3,0.3,0.9,0.8,1.3,0.8c1.2,0,2.1-0.9,2.1-2.1c0-0.4-0.4-1-0.8-1.3c-0.4-0.4-0.4-1.1,0-1.4c0.4-0.4,1.1-0.4,1.4,0
				c0.2,0.2,1.3,1.3,1.3,2.8C56.6,58.7,54.7,60.7,52.4,60.7z"/>
		</g>
		<g>
			<path fill="#575757" d="M47.2,63.8c-1.4,0-2.7-1.2-2.8-1.3L34.1,52c-0.4-0.4-0.4-1.1,0-1.4c0.4-0.4,1.1-0.4,1.4,0l10.3,10.3
				c0.3,0.3,0.9,0.8,1.3,0.8c1.2,0,2.1-0.9,2.1-2.1c0-0.4-0.4-1-0.8-1.3c-0.4-0.4-0.4-1.1,0-1.4c0.4-0.4,1.1-0.4,1.4,0
				c0.2,0.2,1.3,1.3,1.3,2.8C51.4,61.8,49.6,63.8,47.2,63.8z"/>
		</g>
		<g>
			<path fill="#575757" d="M41,65.8c-1.4,0-2.7-1.2-2.8-1.3l-19-18.9v-3.1l-3.8-3.9c-0.4-0.4-0.4-1.1,0-1.4c0.4-0.4,1.1-0.4,1.4,0
				l4.4,4.4v3.1l18.3,18.3c0.3,0.3,0.9,0.8,1.3,0.8c1.2,0,2.1-0.9,2.1-2.1c0-0.4-0.4-1-0.8-1.3c-0.4-0.4-0.4-1.1,0-1.4
				c0.4-0.4,1.1-0.4,1.4,0c0.2,0.2,1.3,1.3,1.3,2.8C45.2,63.9,43.4,65.8,41,65.8z"/>
		</g>
		<g>
			<path fill="#575757" d="M23.5,53.4c-2.3,0-4.1-1.8-4.1-4.1c0-1.4,1.2-2.7,1.3-2.8c0.4-0.4,1.1-0.4,1.4,0c0.4,0.4,0.4,1.1,0,1.4
				c-0.3,0.3-0.8,0.9-0.8,1.3c0,1.2,0.9,2.1,2.1,2.1c0.4,0,1-0.4,1.3-0.8c0.4-0.4,1.1-0.4,1.4,0c0.4,0.4,0.4,1.1,0,1.4
				C26.1,52.2,24.9,53.4,23.5,53.4z"/>
		</g>
		<g>
			<path fill="#4D5152" d="M27.6,57.6c-2.3,0-4.1-1.8-4.1-4.1c0-1.4,1.2-2.7,1.3-2.8c0.4-0.4,1.1-0.4,1.4,0c0.4,0.4,0.4,1.1,0,1.4
				c-0.3,0.3-0.8,0.9-0.8,1.3c0,1.2,0.9,2.1,2.1,2.1c0.4,0,1-0.4,1.3-0.8c0.4-0.4,1.1-0.4,1.4,0c0.4,0.4,0.4,1.1,0,1.4
				C30.3,56.3,29,57.6,27.6,57.6z"/>
		</g>
		<g>
			<path fill="#575757" d="M31.7,61.7c-2.3,0-4.1-1.8-4.1-4.1c0-1.4,1.2-2.7,1.3-2.8c0.4-0.4,1.1-0.4,1.4,0c0.4,0.4,0.4,1.1,0,1.4
				c-0.3,0.3-0.8,0.9-0.8,1.3c0,1.2,0.9,2.1,2.1,2.1c0.4,0,1-0.4,1.3-0.8c0.4-0.4,1.1-0.4,1.4,0c0.4,0.4,0.4,1.1,0,1.4
				C34.4,60.5,33.1,61.7,31.7,61.7z"/>
		</g>
		<g>
			<path fill="#575757" d="M35.9,65.8c-2.3,0-4.1-1.8-4.1-4.1c0-1.4,1.2-2.7,1.3-2.8c0.4-0.4,1.1-0.4,1.4,0c0.4,0.4,0.4,1.1,0,1.4
				c-0.3,0.3-0.8,0.9-0.8,1.3c0,1.2,0.9,2.1,2.1,2.1c0.4,0,1-0.4,1.3-0.8c0.4-0.4,1.1-0.4,1.4,0c0.4,0.4,0.4,1.1,0,1.4
				C38.6,64.6,37.3,65.8,35.9,65.8z"/>
		</g>
		<g>
			<path fill="#575757" d="M56.6,49.3c-0.3,0-0.5-0.1-0.8-0.3L42.1,35.2v-5.6h-1.7l-4.9,4.9c-0.2,0.2-1.3,1.3-2.8,1.3
				c-2.3,0-4.1-1.8-4.1-4.1c0-1.4,1.2-2.7,1.3-2.8l6.2-6.2c0.4-0.4,1.1-0.4,1.4,0c0.4,0.4,0.4,1.1,0,1.4l-6.2,6.2
				c-0.3,0.3-0.8,0.9-0.8,1.3c0,1.2,0.9,2.1,2.1,2.1c0.4,0,1-0.4,1.3-0.8l5.5-5.5h4.5v6.8l13.2,13.2c0.4,0.4,0.4,1.1,0,1.4
				C57.1,49.2,56.9,49.3,56.6,49.3z"/>
		</g>
		<g>
			<path fill="#575757" d="M48.3,37.8h-3.1v-2.1h3.1c1.2,0,2.1-0.9,2.1-2.1h2C52.4,36,50.6,37.8,48.3,37.8z"/>
		</g>
		<g>
			<path fill="#575757" d="M65.9,40.4L45.8,20.2l7-7c0.4-0.4,1.1-0.4,1.4,0c0.4,0.4,0.4,1.1,0,1.4l-5.5,5.5l17.2,17.2l5.5-5.5
				c0.4-0.4,1.1-0.4,1.4,0c0.4,0.4,0.4,1.1,0,1.4L65.9,40.4z"/>
		</g>
		<g>
			<path fill="#575757" d="M14.1,40.4l-7-7c-0.4-0.4-0.4-1.1,0-1.4c0.4-0.4,1.1-0.4,1.4,0l5.5,5.5l17.2-17.2l-5.5-5.5
				c-0.4-0.4-0.4-1.1,0-1.4c0.4-0.4,1.1-0.4,1.4,0l7,7L14.1,40.4z"/>
		</g>
		<g>
			<path fill="#575757" d="M65.9,33.7c-0.3,0-0.5-0.1-0.8-0.3l-2.1-2.1c-0.4-0.4-0.4-1.1,0-1.4c0.4-0.4,1.1-0.4,1.4,0l2.1,2.1
				c0.4,0.4,0.4,1.1,0,1.4C66.4,33.6,66.2,33.7,65.9,33.7z"/>
		</g>
		<g>
			<path fill="#575757" d="M14.1,33.7c-0.3,0-0.5-0.1-0.8-0.3C13,33,13,32.3,13.4,32l2.1-2.1c0.4-0.4,1.1-0.4,1.4,0
				c0.4,0.4,0.4,1.1,0,1.4l-2.1,2.1C14.6,33.6,14.4,33.7,14.1,33.7z"/>
		</g>
	</g>
	<g>
		<path fill="none" stroke="#4D5152" stroke-width="2" stroke-linecap="round" stroke-miterlimit="10" d="M35.9,50.3"/>
	</g>
	<g>
		<path fill="none" stroke="#4D5152" stroke-width="2" stroke-linecap="round" stroke-miterlimit="10" d="M33.8,52.4"/>
	</g>
</g>
</svg>
