<?xml version="1.0" encoding="utf-8"?>
<!-- Generator: Adobe Illustrator 18.1.1, SVG Export Plug-In . SVG Version: 6.00 Build 0)  -->
<svg version="1.1" id="Layer_1" xmlns="http://www.w3.org/2000/svg" xmlns:xlink="http://www.w3.org/1999/xlink" x="0px" y="0px"
	 viewBox="0 0 80 80" enable-background="new 0 0 80 80" xml:space="preserve">
<g>
	<g>
		<rect x="11.7537" y="12.0011" fill="#FFFFFF" width="57.9977" height="55.9978"/>
		<g>
			<g>
				<rect x="17.756" y="26.0018" fill="#E0E0E0" width="45.9982" height="3.9998"/>
			</g>
			<g>
				<rect x="17.7558" y="60.0002" fill="#575757" width="16.3459" height="1.9999"/>
			</g>
			<g>
				<rect x="17.756" y="56.0006" fill="#575757" width="11.9991" height="1.9999"/>
			</g>
			<g>
				<rect x="17.756" y="32.0015" fill="#F4F4F4" width="45.9982" height="20.5952"/>
			</g>
		</g>
	</g>
	<g>
		<polygon fill="#575757" points="44.7519,67.9989 11.7537,67.9989 11.7537,12.0011 69.7515,12.0011 69.7515,44.0011 
			67.7516,44.0011 67.7516,14.001 13.7537,14.001 13.7537,65.999 44.7519,65.999 		"/>
	</g>
	<g>
		<rect x="13.7537" y="20.0008" fill="#575757" width="53.9979" height="1.9999"/>
	</g>
	<g>
		<rect x="15.7536" y="16.0009" fill="#575757" width="1.9999" height="1.9999"/>
	</g>
	<g>
		<rect x="19.7534" y="16.0009" fill="#575757" width="1.9999" height="1.9999"/>
	</g>
	<g>
		<rect x="23.7533" y="16.0009" fill="#575757" width="1.9999" height="1.9999"/>
	</g>
	<g>
		<rect x="27.7531" y="14.001" fill="#575757" width="1.9999" height="5.9998"/>
	</g>
	<g>
		<rect x="31.753" y="16.0009" fill="#575757" width="33.9987" height="1.9999"/>
	</g>
</g>
<g>
	<g>
		<path fill="#FFFFFF" d="M69.3023,53.0003c0,0-7.88,9.1261-17.6003,9.1261s-17.6003-9.1261-17.6003-9.1261
			s7.88-9.1261,17.6003-9.1261S69.3023,53.0003,69.3023,53.0003z"/>
	</g>
	<g>
		<circle fill="#FFFFFF" cx="51.702" cy="53.0003" r="9.1261"/>
	</g>
	<g>
		<path fill="#E0E0E0" d="M46.4871,53.0003c0,2.8799,2.3346,5.2149,5.2149,5.2149c2.8802,0,5.2149-2.335,5.2149-5.2149
			s-2.3346-5.2149-5.2149-5.2149c-1.3037,0-1.9556,0.6519-1.9556,0.6519c1.44,0,2.6074,1.1675,2.6074,2.6074
			c0,1.44-1.1675,2.6074-2.6074,2.6074c-1.44,0-2.6074-1.1675-2.6074-2.6074C47.139,51.0447,46.4871,51.6966,46.4871,53.0003z"/>
	</g>
	<g>
		<path fill="#575757" d="M51.702,63.0376c-5.5341,0-10.0369-4.5028-10.0369-10.0374s4.5028-10.0374,10.0369-10.0374
			s10.0369,4.5028,10.0369,10.0374S57.2361,63.0376,51.702,63.0376z M51.702,44.7853c-4.5295,0-8.2144,3.685-8.2144,8.2149
			s3.685,8.2149,8.2144,8.2149s8.2144-3.685,8.2144-8.2149S56.2315,44.7853,51.702,44.7853z"/>
	</g>
	<g>
		<path fill="#575757" d="M51.702,63.0376c-10.0218,0-17.9568-9.0563-18.2896-9.442l-0.5143-0.5953l0.5143-0.5953
			c0.3328-0.3858,8.2678-9.442,18.2896-9.442s17.9568,9.0563,18.2896,9.442l0.5144,0.5953l-0.5144,0.5953
			C69.6588,53.9813,61.7238,63.0376,51.702,63.0376z M35.347,52.9998c1.923,1.9804,8.5953,8.2153,16.355,8.2153
			c7.774,0,14.4347-6.2331,16.355-8.2144c-1.923-1.9804-8.5953-8.2153-16.355-8.2153C43.928,44.7853,37.2673,51.0185,35.347,52.9998
			z"/>
	</g>
</g>
</svg>
