<?xml version="1.0" encoding="utf-8"?>
<!-- Generator: Adobe Illustrator 18.1.1, SVG Export Plug-In . SVG Version: 6.00 Build 0)  -->
<svg version="1.1" id="Layer_1" xmlns="http://www.w3.org/2000/svg" xmlns:xlink="http://www.w3.org/1999/xlink" x="0px" y="0px"
	 viewBox="0 0 80 80" enable-background="new 0 0 80 80" xml:space="preserve">
<g>
	<g>
		<polygon fill="#FFFFFF" points="47.4,25.3 33.5,15.9 19.6,25.3 19.6,60.7 47.4,60.7 		"/>
		<path fill="#575757" d="M48.3,61.5H18.7V24.8l14.7-9.9l14.8,9.9C48.3,24.8,48.3,61.5,48.3,61.5z M20.4,59.7h26v-34l-13-8.7
			l-13,8.7V59.7z"/>
	</g>
	<g>
		<rect x="37.1" y="51.4" fill="#E0E0E0" width="4.7" height="9.3"/>
		<path fill="#575757" d="M42.7,61.5h-6.4v-11h6.4V61.5z M38.1,59.7H41v-7.5h-2.9V59.7z"/>
	</g>
	<g>
		<rect x="25.1" y="41" fill="#E0E0E0" width="4.6" height="4.8"/>
		<path fill="#575757" d="M30.5,46.6h-6.4v-6.5h6.4V46.6z M25.9,44.9h2.8v-3h-2.8V44.9z"/>
	</g>
	<g>
		<rect x="37.2" y="41" fill="#E0E0E0" width="4.6" height="4.8"/>
		<path fill="#575757" d="M42.7,46.6h-6.4v-6.5h6.4V46.6z M38.1,44.9h2.8v-3h-2.8V44.9z"/>
	</g>
	<g>
		<rect x="25.1" y="51.2" fill="#E0E0E0" width="4.6" height="4.8"/>
		<path fill="#575757" d="M30.5,56.8h-6.4v-6.5h6.4V56.8z M25.9,55.1h2.8v-3h-2.8V55.1z"/>
	</g>
	<g>
		<polygon fill="#575757" points="59.1,13.1 56.6,10.7 54.3,13.1 53,11.8 56.6,8.2 60.2,11.8 		"/>
	</g>
	<g>
		<polygon fill="#575757" points="56.6,61.8 53,58.2 54.3,57.1 56.6,59.4 59.1,57.1 60.2,58.2 		"/>
	</g>
	<g>
		<rect x="55.8" y="10.4" fill="#575757" width="1.8" height="50.2"/>
	</g>
	<g>
		<polygon fill="#575757" points="45.1,15.1 43.8,13.9 46.3,11.5 43.8,9.1 45.1,7.9 48.7,11.5 		"/>
	</g>
	<g>
		<polygon fill="#545454" points="21.9,15.1 18.4,11.5 21.9,7.9 23.2,9.1 20.8,11.5 23.2,13.9 		"/>
	</g>
	<g>
		<rect x="19.7" y="10.6" fill="#575757" width="27.9" height="1.8"/>
	</g>
	<g>
		<rect x="18.7" y="65.3" fill="#575757" width="38.9" height="1.8"/>
	</g>
</g>
<g>
	<rect x="18.7" y="68.9" fill="#575757" width="38.9" height="1.8"/>
</g>
<g>
	<rect x="18.7" y="72.6" fill="#575757" width="20.5" height="1.8"/>
</g>
<g>
	<rect x="25.1" y="30.9" fill="#E0E0E0" width="4.6" height="4.8"/>
	<path fill="#575757" d="M30.5,36.5h-6.4V30h6.4V36.5z M25.9,34.7h2.8v-3h-2.8V34.7z"/>
</g>
<g>
	<rect x="37.2" y="30.9" fill="#E0E0E0" width="4.6" height="4.8"/>
	<path fill="#575757" d="M42.7,36.5h-6.4V30h6.4V36.5z M38.1,34.7h2.8v-3h-2.8V34.7z"/>
</g>
</svg>
