<?xml version="1.0" encoding="utf-8"?>
<!-- Generator: Adobe Illustrator 18.1.1, SVG Export Plug-In . SVG Version: 6.00 Build 0)  -->
<svg version="1.1" id="Layer_1" xmlns="http://www.w3.org/2000/svg" xmlns:xlink="http://www.w3.org/1999/xlink" x="0px" y="0px"
	 viewBox="0 0 80 80" enable-background="new 0 0 80 80" xml:space="preserve">
<g>
	<g>
		<g>
			<rect x="11.0115" y="10.9741" fill="#FFFFFF" width="57.9977" height="55.9978"/>
			<g>
				<g>
					<rect x="17.0138" y="24.9747" fill="#E0E0E0" width="45.9982" height="3.9998"/>
				</g>
				<g>
					<rect x="42.0123" y="58.9734" fill="#575757" width="20.9997" height="1.9999"/>
				</g>
				<g>
					<rect x="42.0123" y="54.9736" fill="#575757" width="20.9997" height="1.9999"/>
				</g>
				<g>
					<rect x="17.0138" y="58.9734" fill="#575757" width="16.9994" height="1.9999"/>
				</g>
				<g>
					<rect x="17.0138" y="54.9736" fill="#575757" width="16.9994" height="1.9999"/>
				</g>
				<g>
					<rect x="17.0138" y="30.9745" fill="#F4F4F4" width="45.9982" height="20.5952"/>
				</g>
			</g>
		</g>
		<g>
			<polygon fill="#575757" points="38.011,66.9719 11.0115,66.9719 11.0115,10.9741 69.0093,10.9741 69.0093,35.9736 
				67.0094,35.9736 67.0094,12.974 13.0115,12.974 13.0115,64.972 38.011,64.972 			"/>
		</g>
		<g>
			<rect x="13.0115" y="18.9738" fill="#575757" width="53.9979" height="1.9999"/>
		</g>
		<g>
			<rect x="15.0114" y="14.9739" fill="#575757" width="1.9999" height="1.9999"/>
		</g>
		<g>
			<rect x="19.0112" y="14.9739" fill="#575757" width="1.9999" height="1.9999"/>
		</g>
		<g>
			<rect x="23.0111" y="14.9739" fill="#575757" width="1.9999" height="1.9999"/>
		</g>
		<g>
			<rect x="27.0109" y="12.974" fill="#575757" width="1.9999" height="5.9998"/>
		</g>
		<g>
			<rect x="31.0108" y="14.9739" fill="#575757" width="33.9987" height="1.9999"/>
		</g>
	</g>
	<g>
		<g>
			<circle fill="#FFFFFF" cx="53.0099" cy="50.9725" r="15.9994"/>
		</g>
		<g>
			<path fill="#575757" d="M53.0099,67.9718c-9.3736,0-16.9993-7.6257-16.9993-16.9993s7.6257-16.9993,16.9993-16.9993
				s16.9993,7.6257,16.9993,16.9993S62.3835,67.9718,53.0099,67.9718z M53.0099,35.9731c-8.2707,0-14.9994,6.7287-14.9994,14.9994
				s6.7287,14.9994,14.9994,14.9994s14.9994-6.7287,14.9994-14.9994S61.2806,35.9731,53.0099,35.9731z"/>
		</g>
	</g>
</g>
<g id="Icon-Chevron-Small-Right_3_">
	<path fill="#575757" d="M61.1282,46.9735l-10.1354,10.138l-5.3184-5.321l1.4272-1.4272l3.8913,3.8913l8.7135-8.7082
		L61.1282,46.9735z"/>
</g>
</svg>
